<svg xmlns="http://www.w3.org/2000/svg" viewBox="0 0 409.83 679.48"><defs><style>.cls-1{fill:#a3e635;}</style></defs><g id="Layer_2" data-name="Layer 2"><g id="Layer_1-2" data-name="Layer 1"><path class="cls-1" d="M269.49,161.5V87.59h31.38V56.44H238.76v.1h-.29l0,117.78L366,301.84l-161,161-161-161L171.52,174.32h0V56.44H109.4V87.59h31v73.89L0,301.84l204.92,204.9,204.91-204.9Z"/><path class="cls-1" d="M221.81,107.61h-6.73L215,82.22l-3.79,3-1.89-4.17,12.5-8.71Z"/><path class="cls-1" d="M235.37,35.24h-6.71l-.1-25.39-3.8,3-1.89-4.17L235.37,0Z"/><path class="cls-1" d="M209.31,133.62v16.29a10.25,10.25,0,0,1-11.18,10,10.2,10.2,0,0,1-7.86-2.84,12.4,12.4,0,0,1-3.7-7.58V133.42a9.37,9.37,0,0,1,4-7.28,13.77,13.77,0,0,1,7.58-2.7,12,12,0,0,1,7.48,2.34Q208.74,128.12,209.31,133.62Zm-5.68,16.1-.06-16.3c-1.17-3.12-3-4.68-5.39-4.68s-4.26,1.63-5.59,4.88v15.91c1.29,3.26,3.14,4.88,5.54,4.88S202.43,152.84,203.63,149.72Z"/><path class="cls-1" d="M201.89,39.67V56a10.25,10.25,0,0,1-11.18,10,10.15,10.15,0,0,1-7.86-2.84,12.26,12.26,0,0,1-3.69-7.58V39.48a9.42,9.42,0,0,1,4-7.29,13.77,13.77,0,0,1,7.58-2.7,12.22,12.22,0,0,1,7.49,2.34C200.27,33.4,201.51,36,201.89,39.67Zm-5.68,16.1-.05-16.29c-1.17-3.12-3-4.69-5.41-4.69s-4.26,1.63-5.59,4.88V55.58c1.3,3.26,3.15,4.88,5.55,4.88S195,58.9,196.21,55.77Z"/><path class="cls-1" d="M137.51,264.76c-2.4,0-4.26,1.62-5.59,4.88v15.91q1.94,4.88,5.54,4.88t5.49-4.7l0-16.28C141.73,266.33,139.94,264.76,137.51,264.76Z"/><path class="cls-1" d="M96.25,290.09c-2.4,0-4.27,1.63-5.6,4.87v15.92q1.95,4.88,5.55,4.87c2.46,0,4.3-1.56,5.49-4.68l0-16.3Q99.9,290.09,96.25,290.09Z"/><path class="cls-1" d="M273.17,341.69q3.69,0,5.5-4.69l-.06-16.3q-1.74-4.68-5.39-4.68c-2.4,0-4.27,1.62-5.59,4.87V336.8C268.93,340.06,270.77,341.69,273.17,341.69Z"/><path class="cls-1" d="M181.13,297.37c-2.4,0-4.27,1.63-5.59,4.88v15.91q1.94,4.88,5.54,4.88c2.47,0,4.29-1.57,5.49-4.69l0-16.29Q184.78,297.37,181.13,297.37Z"/><path class="cls-1" d="M181.13,396.69c-2.4,0-4.27,1.63-5.59,4.88V411l9.4,9.4a8.88,8.88,0,0,0,1.63-2.76l0-16.29C185.36,398.26,183.56,396.69,181.13,396.69Z"/><path class="cls-1" d="M175.54,203.64q1.94,4.88,5.54,4.87c2.47,0,4.29-1.56,5.49-4.69l0-16.29a10.38,10.38,0,0,0-1.18-2.26l-9.81,9.82Z"/><path class="cls-1" d="M234.64,361.48l0-16.29c-1.18-3.12-3-4.69-5.41-4.69s-4.26,1.63-5.59,4.88v15.91c1.3,3.25,3.14,4.88,5.55,4.88S233.44,364.61,234.64,361.48Z"/><path class="cls-1" d="M229.15,259.24q3.69,0,5.49-4.68l0-16.29c-1.18-3.13-3-4.69-5.41-4.69s-4.26,1.62-5.59,4.87v15.92C224.9,257.62,226.74,259.24,229.15,259.24Z"/><path class="cls-1" d="M228.39,397.24l-3.79,3-1.89-4.17,12.51-8.71V410.1l107-107-107-107v12.17h-6.74l-.07-19-3.57-3.58-.24.2-.37-.8-19.32-19.32L189.67,181a11.83,11.83,0,0,1,2.59,6.77V204a10.24,10.24,0,0,1-11.18,10,10.19,10.19,0,0,1-7.86-2.84,12.37,12.37,0,0,1-3.7-7.57V201.1l-102,102,102,102v-3.64a9.43,9.43,0,0,1,4-7.29,13.7,13.7,0,0,1,7.58-2.7,12.12,12.12,0,0,1,7.49,2.35q3.12,2.34,3.69,7.83v16.3a9.81,9.81,0,0,1-2.93,6.95l15.58,15.58,23.55-23.55Zm-121-86a10.25,10.25,0,0,1-11.17,10,10.19,10.19,0,0,1-7.86-2.85,12.32,12.32,0,0,1-3.7-7.57V294.77a9.41,9.41,0,0,1,4-7.29,13.85,13.85,0,0,1,7.58-2.7,12.13,12.13,0,0,1,7.48,2.34c2.09,1.57,3.31,4.19,3.69,7.84Zm36.15,35.34H136.8l-.1-25.38-3.79,3-1.9-4.17,12.51-8.71Zm5.12-60.67a9.88,9.88,0,0,1-3.23,7.3,9.73,9.73,0,0,1-7.95,2.73,10.18,10.18,0,0,1-7.86-2.83,12.4,12.4,0,0,1-3.7-7.58v-16.1a9.39,9.39,0,0,1,4-7.3,13.76,13.76,0,0,1,7.58-2.69,12.15,12.15,0,0,1,7.48,2.34c2.09,1.56,3.32,4.18,3.7,7.84Zm38.5-51.15V270h-6.72l-.1-25.39-3.79,3-1.89-4.18Zm0,143.12h-6.72l-.1-25.38-3.79,3-1.89-4.17,12.5-8.72Zm5.12-59.37a10.25,10.25,0,0,1-11.18,10.05,10.19,10.19,0,0,1-7.86-2.84,12.4,12.4,0,0,1-3.7-7.58v-16.1a9.4,9.4,0,0,1,4-7.29,13.79,13.79,0,0,1,7.58-2.71,12.24,12.24,0,0,1,7.49,2.34c2.08,1.57,3.31,4.18,3.69,7.85Zm126.45-33.09v35.23H312l-.09-25.37-3.8,3-1.89-4.16Zm-39.48-34.28V286.4h-6.72L272.4,261l-3.77,3-1.9-4.17ZM261.61,320.7a9.41,9.41,0,0,1,4-7.29,13.83,13.83,0,0,1,7.58-2.7,12.09,12.09,0,0,1,7.48,2.35c2.08,1.56,3.31,4.18,3.69,7.83v16.29a9.87,9.87,0,0,1-3.22,7.3,9.74,9.74,0,0,1-7.95,2.75,10.16,10.16,0,0,1-7.85-2.85,12.36,12.36,0,0,1-3.71-7.58Zm-44-82.43a9.35,9.35,0,0,1,4-7.3,13.82,13.82,0,0,1,7.58-2.7,12.09,12.09,0,0,1,7.48,2.35c2.08,1.56,3.31,4.18,3.69,7.83v16.3a10.25,10.25,0,0,1-11.17,10,10.21,10.21,0,0,1-7.86-2.84,12.28,12.28,0,0,1-3.69-7.58Zm17.62,47.16v35.24h-6.74l-.09-25.38-3.79,3-1.89-4.17ZM217.6,361.29v-16.1a9.35,9.35,0,0,1,4-7.29,13.76,13.76,0,0,1,7.58-2.71,12.1,12.1,0,0,1,7.48,2.36q3.12,2.34,3.69,7.83v16.3A9.86,9.86,0,0,1,237.1,369a9.74,9.74,0,0,1-7.95,2.74,10.14,10.14,0,0,1-7.86-2.84A12.31,12.31,0,0,1,217.6,361.29Z"/><path class="cls-1" d="M95.71,573.44a27,27,0,0,0-8-5.11,23.66,23.66,0,0,0-8.78-1.62q-9.61,0-15.32,5.75T57.89,587.9q0,9.48,5.3,15.05t14.45,5.56a25.78,25.78,0,0,0,18-7l-.08,13.18a33.71,33.71,0,0,1-8.61,3.61,36.49,36.49,0,0,1-9.46,1.19q-14.37,0-23.59-8.93T44.67,587.9q0-13.73,9.24-22.63t23.82-8.91a42.54,42.54,0,0,1,9.44,1,41.71,41.71,0,0,1,9,3.16Z"/><path class="cls-1" d="M151.14,617.91H136.32l-15.81-28.08v28.08H107.66V557.8h18.4q11,0,16.42,4.25t5.46,12.79a15.76,15.76,0,0,1-3.74,10.59,14.6,14.6,0,0,1-9.64,5.14Zm-30.63-34.49h1.93q7.8,0,10.31-1.7t2.5-5.94c0-2.95-.89-5-2.69-6.3s-5.16-1.87-10.12-1.87h-1.93Z"/><path class="cls-1" d="M220.17,588a31.29,31.29,0,0,1-2.4,12.19,29.94,29.94,0,0,1-6.92,10.11,33.17,33.17,0,0,1-10.55,6.85,32.21,32.21,0,0,1-22.94.52,33.58,33.58,0,0,1-9.67-5.36A30.57,30.57,0,0,1,156,588a31.19,31.19,0,0,1,2.38-12.18,30.28,30.28,0,0,1,7-10.12,32.47,32.47,0,0,1,35-6.81,32.83,32.83,0,0,1,10.49,6.81,30.43,30.43,0,0,1,6.94,10.14A31.24,31.24,0,0,1,220.17,588Zm-32,20.08a17.61,17.61,0,0,0,13.49-5.73,21.95,21.95,0,0,0-.06-28.72,18.54,18.54,0,0,0-27,0,22.06,22.06,0,0,0-.08,28.78A17.79,17.79,0,0,0,188.14,608.06Z"/><path class="cls-1" d="M231,617.91V557.8h14.78q11.84,0,17.47,4.52t5.65,14q0,8.75-5.69,13.71t-15.74,5H244v22.95Zm12.94-33h1.84c3.51,0,6.05-.72,7.64-2.18s2.38-3.77,2.38-7c0-2.95-.79-5.11-2.38-6.46s-4.13-2-7.64-2H244Z"/><path class="cls-1" d="M277.78,617.91V557.8H289a84.57,84.57,0,0,1,12.79.68,23,23,0,0,1,7,2.23,14.2,14.2,0,0,1,7.31,12.73A11.67,11.67,0,0,1,313,582q-3.17,3.22-9.44,4.3,7.26,1.07,11,4.72a13,13,0,0,1,3.72,9.73,15.88,15.88,0,0,1-2.14,8.11,14.74,14.74,0,0,1-5.87,5.69,25.56,25.56,0,0,1-7.8,2.58,97.7,97.7,0,0,1-14.83.78h-9.81Zm12.85-36.09h2.88c3.88,0,6.64-.55,8.25-1.64s2.42-2.93,2.42-5.5-.77-4.32-2.32-5.38-4.25-1.61-8.11-1.61h-3.12Zm0,26.07h5.05q4.85,0,7.35-2.11a7.64,7.64,0,0,0,2.51-6.18,7,7,0,0,0-2.49-5.83c-1.65-1.34-4.06-2-7.2-2h-5.22Z"/><path class="cls-1" d="M328,617.91V557.8h35.39v10.84H340.85V581h22.54v10.92H340.85V607h22.54v10.92Z"/><path class="cls-1" d="M67.07,643.29a7.74,7.74,0,0,0-2.19-1.36,6.41,6.41,0,0,0-2.35-.44A6.08,6.08,0,0,0,58,643.25a6.28,6.28,0,0,0-1.74,4.6,7.35,7.35,0,0,0,.42,2.56,5.79,5.79,0,0,0,1.3,2,6,6,0,0,0,2,1.31,6.26,6.26,0,0,0,2.38.45,7.07,7.07,0,0,0,2.41-.42A7.84,7.84,0,0,0,67,652.52v1.53a9.36,9.36,0,0,1-2.24,1,8.33,8.33,0,0,1-2.34.34,8.12,8.12,0,0,1-3-.55A7.37,7.37,0,0,1,57,653.27a6.94,6.94,0,0,1-1.59-2.41,8.39,8.39,0,0,1-.53-3,8,8,0,0,1,.55-3,6.81,6.81,0,0,1,1.59-2.4,7.12,7.12,0,0,1,2.44-1.55,8.1,8.1,0,0,1,3-.56,8.25,8.25,0,0,1,2.54.38,6.76,6.76,0,0,1,2.14,1.13Z"/><path class="cls-1" d="M88.64,655H87.05l-5-6.84h-.78V655h-1.3V640.67h2.63a5.35,5.35,0,0,1,3.5,1,3.61,3.61,0,0,1,1.16,2.94,3.5,3.5,0,0,1-1,2.63,3.77,3.77,0,0,1-2.74,1ZM81.23,641.8v5.3h1.31a4.12,4.12,0,0,0,2.54-.58,2.39,2.39,0,0,0,.73-2,2.61,2.61,0,0,0-.75-2.11,3.94,3.94,0,0,0-2.52-.63Z"/><path class="cls-1" d="M115.24,647.87a7.35,7.35,0,0,1-2.25,5.32,7.58,7.58,0,0,1-2.5,1.64,8,8,0,0,1-5.88,0,7.7,7.7,0,0,1-4.16-4.08,7.4,7.4,0,0,1-.57-2.88,7.37,7.37,0,0,1,2.24-5.36,7.36,7.36,0,0,1,2.47-1.62,8.2,8.2,0,0,1,5.93,0,7.18,7.18,0,0,1,2.47,1.61,7.44,7.44,0,0,1,2.25,5.36Zm-7.69,6.36a6.31,6.31,0,0,0,2.41-.47,6.47,6.47,0,0,0,2.05-1.37,6.38,6.38,0,0,0,1.84-4.52,6.32,6.32,0,0,0-.47-2.45,6.5,6.5,0,0,0-1.37-2.07,6.06,6.06,0,0,0-2-1.37,6.28,6.28,0,0,0-6.87,1.37,6.34,6.34,0,0,0-1.84,4.52,6.35,6.35,0,0,0,3.86,5.89A6.3,6.3,0,0,0,107.55,654.23Z"/><path class="cls-1" d="M127.05,652.6l1.12-.6a3.12,3.12,0,0,0,1.08,1.65,3,3,0,0,0,1.85.58,2.82,2.82,0,0,0,2.13-.8,3.11,3.11,0,0,0,.76-2.23,2.79,2.79,0,0,0-.51-1.72,6.89,6.89,0,0,0-2.21-1.59,9.83,9.83,0,0,1-2.88-2,3.19,3.19,0,0,1-.72-2.1,3.24,3.24,0,0,1,1-2.49,3.76,3.76,0,0,1,2.68-1,3.65,3.65,0,0,1,1.87.46,3.35,3.35,0,0,1,1.3,1.36l-1,.61a2.22,2.22,0,0,0-.88-.94,2.82,2.82,0,0,0-1.36-.32,2.31,2.31,0,0,0-1.69.62,2.27,2.27,0,0,0-.63,1.68c0,1,.83,2,2.49,2.81l.69.37a7.28,7.28,0,0,1,2.45,1.9,4.06,4.06,0,0,1,.62,2.33,3.9,3.9,0,0,1-4.2,4.19,4.08,4.08,0,0,1-2.41-.7A4.53,4.53,0,0,1,127.05,652.6Z"/><path class="cls-1" d="M147.09,652.6l1.11-.6a3.07,3.07,0,0,0,1.09,1.65,3,3,0,0,0,1.84.58,2.82,2.82,0,0,0,2.13-.8,3.11,3.11,0,0,0,.76-2.23,2.79,2.79,0,0,0-.51-1.72,6.89,6.89,0,0,0-2.21-1.59,10.12,10.12,0,0,1-2.88-2,3.19,3.19,0,0,1-.72-2.1,3.24,3.24,0,0,1,1-2.49,3.78,3.78,0,0,1,2.68-1,3.63,3.63,0,0,1,1.87.46,3.35,3.35,0,0,1,1.3,1.36l-1,.61a2.22,2.22,0,0,0-.88-.94,2.82,2.82,0,0,0-1.36-.32,2.14,2.14,0,0,0-2.31,2.3c0,1,.83,2,2.49,2.81l.68.37a7.28,7.28,0,0,1,2.45,1.9,4.06,4.06,0,0,1,.62,2.33,3.9,3.9,0,0,1-4.19,4.19,4.09,4.09,0,0,1-2.42-.7A4.51,4.51,0,0,1,147.09,652.6Z"/><path class="cls-1" d="M184,655V640.67h2.62a11.47,11.47,0,0,1,2.28.16,3.65,3.65,0,0,1,1.27.55,3.22,3.22,0,0,1,1.05,1.34,4.83,4.83,0,0,1,.37,1.89,3.69,3.69,0,0,1-1.15,3,5.58,5.58,0,0,1-3.62,1h-1.51V655Zm1.31-7.58h.89a5.75,5.75,0,0,0,3.19-.61,2.46,2.46,0,0,0,.82-2.11,3.68,3.68,0,0,0-.19-1.17,2.78,2.78,0,0,0-.56-.95,2,2,0,0,0-1-.61,9.43,9.43,0,0,0-2.22-.18h-.89Z"/><path class="cls-1" d="M204.1,655V640.67h1.31v13.12h4.92V655Z"/><path class="cls-1" d="M220.47,655l6.3-14.91,6,14.91h-1.42l-1.83-4.86h-5.87l-1.9,4.86Zm3.67-6h5l-2.45-6.24Z"/><path class="cls-1" d="M245.9,655V641.89h-4v-1.22h9.21v1.22h-3.95V655Z"/><path class="cls-1" d="M263.37,655V640.67h7.1v1.22h-5.8v4.49h5.59v1.22h-5.59V655Z"/><path class="cls-1" d="M298.14,647.87a7.35,7.35,0,0,1-2.25,5.32,7.58,7.58,0,0,1-2.5,1.64,8,8,0,0,1-5.88,0,7.79,7.79,0,0,1-4.16-4.08,7.4,7.4,0,0,1-.57-2.88,7.33,7.33,0,0,1,2.25-5.36,7.31,7.31,0,0,1,2.46-1.62,7.87,7.87,0,0,1,3-.55,8,8,0,0,1,3,.56,7.24,7.24,0,0,1,2.46,1.61,7.47,7.47,0,0,1,1.67,2.45A7.31,7.31,0,0,1,298.14,647.87Zm-7.69,6.36a6.31,6.31,0,0,0,2.41-.47,6.47,6.47,0,0,0,2.05-1.37,6.45,6.45,0,0,0,1.85-4.52,6.51,6.51,0,0,0-.47-2.45,6.7,6.7,0,0,0-1.38-2.07,6,6,0,0,0-2-1.37,6.37,6.37,0,0,0-2.43-.47,6.2,6.2,0,0,0-4.44,1.84,6.53,6.53,0,0,0-1.38,2.07,6.43,6.43,0,0,0,1.38,7,6.11,6.11,0,0,0,4.44,1.84Z"/><path class="cls-1" d="M319.77,655h-1.59l-5-6.84h-.78V655h-1.31V640.67h2.64a5.32,5.32,0,0,1,3.49,1,3.58,3.58,0,0,1,1.17,2.94,3.5,3.5,0,0,1-1,2.63,3.78,3.78,0,0,1-2.74,1Zm-7.41-13.21v5.3h1.31a4.12,4.12,0,0,0,2.54-.58,2.42,2.42,0,0,0,.72-2,2.61,2.61,0,0,0-.74-2.11,3.94,3.94,0,0,0-2.52-.63Z"/><path class="cls-1" d="M342.82,649.07c-.1-1.88-.22-4.15-.2-5.84h-.06c-.46,1.59-1,3.28-1.7,5.14l-2.39,6.56h-1.33L335,648.49c-.64-1.9-1.19-3.65-1.57-5.26h0c0,1.69-.14,4-.26,6l-.36,5.8h-1.67l.95-13.52h2.22l2.31,6.54c.56,1.67,1,3.15,1.37,4.56H338c.34-1.37.82-2.85,1.42-4.56l2.41-6.54H344l.84,13.52h-1.71Z"/><path class="cls-1" d="M50,679.1V664.75h2.49a12.12,12.12,0,0,1,2.37.16,3,3,0,0,1,1.23.54,3.52,3.52,0,0,1,1.09,1.31,3.94,3.94,0,0,1,.37,1.72,3.14,3.14,0,0,1-.6,1.95,2.77,2.77,0,0,1-1.64,1.06,3.43,3.43,0,0,1,2.16,1.11,3.36,3.36,0,0,1,.79,2.28,5,5,0,0,1-.31,1.8,3.6,3.6,0,0,1-2.43,2.18,13,13,0,0,1-3,.24Zm1.31-8H52.9a4.19,4.19,0,0,0,2.54-.59,2.36,2.36,0,0,0,.74-2,2.63,2.63,0,0,0-.72-2.09,4.09,4.09,0,0,0-2.56-.6H51.28Zm0,6.84h1.66a10.56,10.56,0,0,0,2-.12,2.34,2.34,0,0,0,.92-.4,2.44,2.44,0,0,0,.73-1,3.34,3.34,0,0,0,.28-1.33,3.62,3.62,0,0,0-.31-1.52,2.12,2.12,0,0,0-.84-1,2.77,2.77,0,0,0-.88-.31,9.87,9.87,0,0,0-1.57-.09H51.28Z"/><path class="cls-1" d="M69.15,679.1l6.3-14.92,6,14.92H80.07l-1.83-4.86H72.38l-1.9,4.86Zm3.67-6h5l-2.45-6.24Z"/><path class="cls-1" d="M104.31,667.38a7.79,7.79,0,0,0-2.19-1.37,6.41,6.41,0,0,0-2.35-.44,6,6,0,0,0-4.52,1.77,6.25,6.25,0,0,0-1.74,4.59,7.35,7.35,0,0,0,.42,2.56,5.8,5.8,0,0,0,3.28,3.33,6.26,6.26,0,0,0,2.38.45,7.07,7.07,0,0,0,2.41-.42,7.81,7.81,0,0,0,2.23-1.24v1.53a9.33,9.33,0,0,1-2.24,1,8.35,8.35,0,0,1-2.34.35,8.13,8.13,0,0,1-3-.56,7,7,0,0,1-2.44-1.57,6.85,6.85,0,0,1-1.59-2.41,8.35,8.35,0,0,1-.53-3,8,8,0,0,1,.55-3,7,7,0,0,1,1.59-2.4A7.1,7.1,0,0,1,96.69,665a7.9,7.9,0,0,1,3-.56,8.25,8.25,0,0,1,2.54.37,6.79,6.79,0,0,1,2.14,1.14Z"/><path class="cls-1" d="M116.91,679.1V665.57h1.9l4.34,6.85a40,40,0,0,1,2.43,4.39l0,0c-.17-1.81-.21-3.45-.21-5.56v-5.66h1.65V679.1h-1.77L121,672.24a43.15,43.15,0,0,1-2.53-4.52l-.06,0c.1,1.71.14,3.33.14,5.58v5.78Z"/><path class="cls-1" d="M147.15,672.76h-5.26v4.87h5.86v1.47h-7.6V665.57h7.3V667h-5.56v4.27h5.26Z"/><path class="cls-1" d="M163,667.06h-4.12v-1.49h10v1.49h-4.14v12H163Z"/><path class="cls-1" d="M196.47,679.1V664.75h7.1V666h-5.8v4.49h5.8v1.23h-5.8v6.18h5.8v1.23Z"/><path class="cls-1" d="M216.2,679.1h-1.43l4.38-7.55-4-6.8h1.47l3.24,5.69,3.26-5.69h1.41l-4,6.76L225,679.1h-1.45l-3.65-6.36Z"/><path class="cls-1" d="M236.55,679.1V664.75h2.62a11.12,11.12,0,0,1,2.27.17,3.4,3.4,0,0,1,1.27.55,3.16,3.16,0,0,1,1,1.34,4.65,4.65,0,0,1,.37,1.89,3.68,3.68,0,0,1-1.14,3,5.63,5.63,0,0,1-3.63,1h-1.51v6.44Zm1.3-7.59h.89a5.81,5.81,0,0,0,3.19-.6,2.45,2.45,0,0,0,.82-2.11,3.59,3.59,0,0,0-.18-1.17,2.89,2.89,0,0,0-.56-1,2.08,2.08,0,0,0-1-.61,10.28,10.28,0,0,0-2.23-.17h-.89Z"/><path class="cls-1" d="M256.62,679.1V664.75h1.3v13.12h4.92v1.23Z"/><path class="cls-1" d="M288.91,672a7.24,7.24,0,0,1-.58,2.89,7.41,7.41,0,0,1-1.66,2.43,7.63,7.63,0,0,1-5.45,2.21,7.79,7.79,0,0,1-2.93-.56,7.62,7.62,0,0,1-2.49-1.65,7.53,7.53,0,0,1-1.67-2.44,7.33,7.33,0,0,1-.57-2.88,7.46,7.46,0,0,1,.57-2.9,7.62,7.62,0,0,1,1.67-2.46,7.24,7.24,0,0,1,2.46-1.61,8.29,8.29,0,0,1,5.94,0,7.51,7.51,0,0,1,4.14,4.07A7.46,7.46,0,0,1,288.91,672Zm-7.69,6.36a6.18,6.18,0,0,0,2.42-.47,6.31,6.31,0,0,0,2.05-1.37,6.5,6.5,0,0,0,1.37-7,6.28,6.28,0,0,0-1.37-2.07,6.19,6.19,0,0,0-2-1.38,6.37,6.37,0,0,0-2.43-.47,6.22,6.22,0,0,0-2.4.47,6.4,6.4,0,0,0-2,1.38,6.5,6.5,0,0,0-1.37,2.07,6.2,6.2,0,0,0-.47,2.44,6.34,6.34,0,0,0,1.84,4.52,6.17,6.17,0,0,0,2,1.38A6.25,6.25,0,0,0,281.22,678.31Z"/><path class="cls-1" d="M310.54,679.1H309l-5-6.84h-.79v6.84h-1.3V664.75h2.64a5.32,5.32,0,0,1,3.49,1,3.63,3.63,0,0,1,1.16,2.94,3.51,3.51,0,0,1-1,2.64,3.8,3.8,0,0,1-2.74,1Zm-7.41-13.21v5.3h1.32a4.21,4.21,0,0,0,2.54-.58,2.42,2.42,0,0,0,.72-2,2.63,2.63,0,0,0-.75-2.11,4,4,0,0,0-2.51-.62Z"/><path class="cls-1" d="M322.46,679.1V664.75h7.1V666h-5.8v4.49h5.8v1.23h-5.8v6.18h5.8v1.23Z"/><path class="cls-1" d="M351.51,679.1h-1.59l-5-6.84h-.78v6.84h-1.31V664.75h2.64a5.3,5.3,0,0,1,3.49,1,3.61,3.61,0,0,1,1.17,2.94,3.51,3.51,0,0,1-1,2.64,3.78,3.78,0,0,1-2.74,1Zm-7.41-13.21v5.3h1.31a4.19,4.19,0,0,0,2.54-.58,2.42,2.42,0,0,0,.72-2,2.63,2.63,0,0,0-.74-2.11,4,4,0,0,0-2.52-.62Z"/></g></g></svg>