<svg xmlns="http://www.w3.org/2000/svg" viewBox="0 0 409.83 619.51"><defs><style>.cls-1{fill:#a3e635;}</style></defs><g id="Layer_2" data-name="Layer 2"><g id="Layer_1-2" data-name="Layer 1"><path class="cls-1" d="M269.49,161.5V87.59h31.38V56.44H238.76v.1h-.29l0,117.78L366,301.84l-161,161-161-161L171.52,174.32h0V56.44H109.4V87.59h31v73.89L0,301.84l204.92,204.9,204.91-204.9Z"/><path class="cls-1" d="M221.81,107.61h-6.73L215,82.22l-3.79,3-1.89-4.17,12.5-8.71Z"/><path class="cls-1" d="M235.37,35.24h-6.71l-.1-25.39-3.8,3-1.89-4.17L235.37,0Z"/><path class="cls-1" d="M209.31,133.62v16.29a10.25,10.25,0,0,1-11.18,10,10.2,10.2,0,0,1-7.86-2.84,12.4,12.4,0,0,1-3.7-7.58V133.42a9.37,9.37,0,0,1,4-7.28,13.77,13.77,0,0,1,7.58-2.7,12,12,0,0,1,7.48,2.34Q208.74,128.12,209.31,133.62Zm-5.68,16.1-.06-16.3c-1.17-3.12-3-4.68-5.39-4.68s-4.26,1.63-5.59,4.88v15.91c1.29,3.26,3.14,4.88,5.54,4.88S202.43,152.84,203.63,149.72Z"/><path class="cls-1" d="M201.89,39.67V56a10.25,10.25,0,0,1-11.18,10,10.15,10.15,0,0,1-7.86-2.84,12.26,12.26,0,0,1-3.69-7.58V39.48a9.42,9.42,0,0,1,4-7.29,13.77,13.77,0,0,1,7.58-2.7,12.22,12.22,0,0,1,7.49,2.34C200.27,33.4,201.51,36,201.89,39.67Zm-5.68,16.1-.05-16.29c-1.17-3.12-3-4.69-5.41-4.69s-4.26,1.63-5.59,4.88V55.58c1.3,3.26,3.15,4.88,5.55,4.88S195,58.9,196.21,55.77Z"/><path class="cls-1" d="M137.51,264.76c-2.4,0-4.26,1.62-5.59,4.88v15.91q1.94,4.88,5.54,4.88t5.49-4.7l0-16.28C141.73,266.33,139.94,264.76,137.51,264.76Z"/><path class="cls-1" d="M96.25,290.09c-2.4,0-4.27,1.63-5.6,4.87v15.92q1.95,4.88,5.55,4.87c2.46,0,4.3-1.56,5.49-4.68l0-16.3Q99.9,290.09,96.25,290.09Z"/><path class="cls-1" d="M273.17,341.69q3.69,0,5.5-4.69l-.06-16.3q-1.74-4.68-5.39-4.68c-2.4,0-4.27,1.62-5.59,4.87V336.8C268.93,340.06,270.77,341.69,273.17,341.69Z"/><path class="cls-1" d="M181.13,297.37c-2.4,0-4.27,1.63-5.59,4.88v15.91q1.94,4.88,5.54,4.88c2.47,0,4.29-1.57,5.49-4.69l0-16.29Q184.78,297.37,181.13,297.37Z"/><path class="cls-1" d="M181.13,396.69c-2.4,0-4.27,1.63-5.59,4.88V411l9.4,9.4a8.88,8.88,0,0,0,1.63-2.76l0-16.29C185.36,398.26,183.56,396.69,181.13,396.69Z"/><path class="cls-1" d="M175.54,203.64q1.94,4.88,5.54,4.87c2.47,0,4.29-1.56,5.49-4.69l0-16.29a10.38,10.38,0,0,0-1.18-2.26l-9.81,9.82Z"/><path class="cls-1" d="M234.64,361.48l0-16.29c-1.18-3.12-3-4.69-5.41-4.69s-4.26,1.63-5.59,4.88v15.91c1.3,3.25,3.14,4.88,5.55,4.88S233.44,364.61,234.64,361.48Z"/><path class="cls-1" d="M229.15,259.24q3.69,0,5.49-4.68l0-16.29c-1.18-3.13-3-4.69-5.41-4.69s-4.26,1.62-5.59,4.87v15.92C224.9,257.62,226.74,259.24,229.15,259.24Z"/><path class="cls-1" d="M228.39,397.24l-3.79,3-1.89-4.17,12.51-8.71V410.1l107-107-107-107v12.17h-6.74l-.07-19-3.57-3.58-.24.2-.37-.8-19.32-19.32L189.67,181a11.83,11.83,0,0,1,2.59,6.77V204a10.24,10.24,0,0,1-11.18,10,10.19,10.19,0,0,1-7.86-2.84,12.37,12.37,0,0,1-3.7-7.57V201.1l-102,102,102,102v-3.64a9.43,9.43,0,0,1,4-7.29,13.7,13.7,0,0,1,7.58-2.7,12.12,12.12,0,0,1,7.49,2.35q3.12,2.34,3.69,7.83v16.3a9.81,9.81,0,0,1-2.93,6.95l15.58,15.58,23.55-23.55Zm-121-86a10.25,10.25,0,0,1-11.17,10,10.19,10.19,0,0,1-7.86-2.85,12.32,12.32,0,0,1-3.7-7.57V294.77a9.41,9.41,0,0,1,4-7.29,13.85,13.85,0,0,1,7.58-2.7,12.13,12.13,0,0,1,7.48,2.34c2.09,1.57,3.31,4.19,3.69,7.84Zm36.15,35.34H136.8l-.1-25.38-3.79,3-1.9-4.17,12.51-8.71Zm5.12-60.67a9.88,9.88,0,0,1-3.23,7.3,9.73,9.73,0,0,1-7.95,2.73,10.18,10.18,0,0,1-7.86-2.83,12.4,12.4,0,0,1-3.7-7.58v-16.1a9.39,9.39,0,0,1,4-7.3,13.76,13.76,0,0,1,7.58-2.69,12.15,12.15,0,0,1,7.48,2.34c2.09,1.56,3.32,4.18,3.7,7.84Zm38.5-51.15V270h-6.72l-.1-25.39-3.79,3-1.89-4.18Zm0,143.12h-6.72l-.1-25.38-3.79,3-1.89-4.17,12.5-8.72Zm5.12-59.37a10.25,10.25,0,0,1-11.18,10.05,10.19,10.19,0,0,1-7.86-2.84,12.4,12.4,0,0,1-3.7-7.58v-16.1a9.4,9.4,0,0,1,4-7.29,13.79,13.79,0,0,1,7.58-2.71,12.24,12.24,0,0,1,7.49,2.34c2.08,1.57,3.31,4.18,3.69,7.85Zm126.45-33.09v35.23H312l-.09-25.37-3.8,3-1.89-4.16Zm-39.48-34.28V286.4h-6.72L272.4,261l-3.77,3-1.9-4.17ZM261.61,320.7a9.41,9.41,0,0,1,4-7.29,13.83,13.83,0,0,1,7.58-2.7,12.09,12.09,0,0,1,7.48,2.35c2.08,1.56,3.31,4.18,3.69,7.83v16.29a9.87,9.87,0,0,1-3.22,7.3,9.74,9.74,0,0,1-7.95,2.75,10.16,10.16,0,0,1-7.85-2.85,12.36,12.36,0,0,1-3.71-7.58Zm-44-82.43a9.35,9.35,0,0,1,4-7.3,13.82,13.82,0,0,1,7.58-2.7,12.09,12.09,0,0,1,7.48,2.35c2.08,1.56,3.31,4.18,3.69,7.83v16.3a10.25,10.25,0,0,1-11.17,10,10.21,10.21,0,0,1-7.86-2.84,12.28,12.28,0,0,1-3.69-7.58Zm17.62,47.16v35.24h-6.74l-.09-25.38-3.79,3-1.89-4.17ZM217.6,361.29v-16.1a9.35,9.35,0,0,1,4-7.29,13.76,13.76,0,0,1,7.58-2.71,12.1,12.1,0,0,1,7.48,2.36q3.12,2.34,3.69,7.83v16.3A9.86,9.86,0,0,1,237.1,369a9.74,9.74,0,0,1-7.95,2.74,10.14,10.14,0,0,1-7.86-2.84A12.31,12.31,0,0,1,217.6,361.29Z"/><path class="cls-1" d="M95.71,573.44a27,27,0,0,0-8-5.11,23.66,23.66,0,0,0-8.78-1.62q-9.61,0-15.32,5.75T57.89,587.9q0,9.48,5.3,15.05t14.45,5.56a25.78,25.78,0,0,0,18-7l-.08,13.18a33.71,33.71,0,0,1-8.61,3.61,36.49,36.49,0,0,1-9.46,1.19q-14.37,0-23.59-8.93T44.67,587.9q0-13.73,9.24-22.63t23.82-8.91a42.54,42.54,0,0,1,9.44,1,41.71,41.71,0,0,1,9,3.16Z"/><path class="cls-1" d="M151.14,617.91H136.32l-15.81-28.08v28.08H107.66V557.8h18.4q11,0,16.42,4.25t5.46,12.79a15.76,15.76,0,0,1-3.74,10.59,14.6,14.6,0,0,1-9.64,5.14Zm-30.63-34.49h1.93q7.8,0,10.31-1.7t2.5-5.94c0-2.95-.89-5-2.69-6.3s-5.16-1.87-10.12-1.87h-1.93Z"/><path class="cls-1" d="M220.17,588a31.29,31.29,0,0,1-2.4,12.19,29.94,29.94,0,0,1-6.92,10.11,33.17,33.17,0,0,1-10.55,6.85,32.21,32.21,0,0,1-22.94.52,33.58,33.58,0,0,1-9.67-5.36A30.57,30.57,0,0,1,156,588a31.19,31.19,0,0,1,2.38-12.18,30.28,30.28,0,0,1,7-10.12,32.47,32.47,0,0,1,35-6.81,32.83,32.83,0,0,1,10.49,6.81,30.43,30.43,0,0,1,6.94,10.14A31.24,31.24,0,0,1,220.17,588Zm-32,20.08a17.61,17.61,0,0,0,13.49-5.73,21.95,21.95,0,0,0-.06-28.72,18.54,18.54,0,0,0-27,0,22.06,22.06,0,0,0-.08,28.78A17.79,17.79,0,0,0,188.14,608.06Z"/><path class="cls-1" d="M231,617.91V557.8h14.78q11.84,0,17.47,4.52t5.65,14q0,8.75-5.69,13.71t-15.74,5H244v22.95Zm12.94-33h1.84c3.51,0,6.05-.72,7.64-2.18s2.38-3.77,2.38-7c0-2.95-.79-5.11-2.38-6.46s-4.13-2-7.64-2H244Z"/><path class="cls-1" d="M277.78,617.91V557.8H289a84.57,84.57,0,0,1,12.79.68,23,23,0,0,1,7,2.23,14.2,14.2,0,0,1,7.31,12.73A11.67,11.67,0,0,1,313,582q-3.17,3.22-9.44,4.3,7.26,1.07,11,4.72a13,13,0,0,1,3.72,9.73,15.88,15.88,0,0,1-2.14,8.11,14.74,14.74,0,0,1-5.87,5.69,25.56,25.56,0,0,1-7.8,2.58,97.7,97.7,0,0,1-14.83.78h-9.81Zm12.85-36.09h2.88c3.88,0,6.64-.55,8.25-1.64s2.42-2.93,2.42-5.5-.77-4.32-2.32-5.38-4.25-1.61-8.11-1.61h-3.12Zm0,26.07h5.05q4.85,0,7.35-2.11a7.64,7.64,0,0,0,2.51-6.18,7,7,0,0,0-2.49-5.83c-1.65-1.34-4.06-2-7.2-2h-5.22Z"/><path class="cls-1" d="M328,617.91V557.8h35.39v10.84H340.85V581h22.54v10.92H340.85V607h22.54v10.92Z"/></g></g></svg>