<svg width="71" height="50" viewBox="0 0 71 50" fill="none" xmlns="http://www.w3.org/2000/svg">
    <!-- <path d="M59.5669 48.5785C57.8917 50.2536 55.1761 50.2536 53.501 48.5785L12.2555 7.32112C10.5815 5.64596 10.5815 2.93035 12.2555 1.25637C13.9306 -0.41879 16.6463 -0.41879 18.3214 1.25637L59.5669 42.5137C61.2421 44.1889 61.2421 46.9045 59.5669 48.5785Z" fill="url(#paint0_linear_3_2)"></path>
    <path d="M12.2564 48.5785C13.9315 50.2536 16.6471 50.2536 18.3223 48.5785L59.5678 7.32112C61.2418 5.64596 61.2418 2.93035 59.5678 1.25637C57.8926 -0.41879 55.177 -0.41879 53.5019 1.25637L12.2564 42.5137C10.5812 44.1889 10.5812 46.9045 12.2564 48.5785Z" fill="url(#paint1_linear_3_2)"></path> -->
    <path d="M13.7059 26.9448C13.7059 25.1272 13.0369 24.2184 11.6989 24.2184C11.4086 24.2184 11.1183 24.2563 10.828 24.332C10.5503 24.4077 10.3231 24.5024 10.1464 24.616V29.7469C10.2852 29.7722 10.462 29.7974 10.6765 29.8227C10.8911 29.8353 11.1246 29.8416 11.3771 29.8416C12.147 29.8416 12.7276 29.5765 13.1189 29.0464C13.5102 28.5163 13.7059 27.8157 13.7059 26.9448ZM16.5837 27.0205C16.5837 27.8157 16.4638 28.5352 16.224 29.1789C15.9968 29.8227 15.6623 30.3717 15.2205 30.8261C14.7788 31.2805 14.236 31.634 13.5923 31.8864C12.9485 32.1262 12.2164 32.2461 11.396 32.2461C11.0552 32.2461 10.6955 32.2272 10.3168 32.1893C9.95076 32.1641 9.58471 32.1262 9.21867 32.0757C8.86524 32.0253 8.52444 31.9684 8.19627 31.9053C7.86809 31.8296 7.57778 31.7539 7.32533 31.6781V17.7621L10.1464 17.3077V22.2683C10.462 22.1294 10.7901 22.0221 11.1309 21.9464C11.4717 21.8707 11.8378 21.8328 12.2291 21.8328C12.9359 21.8328 13.5607 21.959 14.1035 22.2115C14.6462 22.4513 15.1006 22.7984 15.4667 23.2528C15.8327 23.7072 16.1104 24.2563 16.2997 24.9C16.4891 25.5311 16.5837 26.238 16.5837 27.0205Z" fill="white"></path>
    <path d="M22.5575 30.0309C22.8352 30.0309 23.1003 30.0246 23.3527 30.012C23.6051 29.9994 23.8071 29.9805 23.9586 29.9552V27.8157C23.845 27.7905 23.6746 27.7652 23.4474 27.74C23.2202 27.7148 23.0119 27.7021 22.8226 27.7021C22.5575 27.7021 22.3051 27.7211 22.0652 27.7589C21.838 27.7842 21.6361 27.841 21.4594 27.9293C21.2826 28.0177 21.1438 28.1376 21.0428 28.2891C20.9419 28.4405 20.8914 28.6299 20.8914 28.8571C20.8914 29.2989 21.0365 29.6081 21.3268 29.7848C21.6298 29.9489 22.04 30.0309 22.5575 30.0309ZM22.3303 21.776C23.1634 21.776 23.8576 21.8707 24.413 22.06C24.9683 22.2493 25.4101 22.5207 25.7383 22.8741C26.0791 23.2276 26.3189 23.6567 26.4578 24.1616C26.5966 24.6665 26.666 25.2282 26.666 25.8467V31.716C26.2621 31.8044 25.7004 31.9053 24.981 32.0189C24.2615 32.1452 23.3906 32.2083 22.3682 32.2083C21.7244 32.2083 21.1375 32.1515 20.6074 32.0379C20.0899 31.9243 19.6418 31.7413 19.2631 31.4888C18.8844 31.2237 18.5941 30.8829 18.3922 30.4664C18.1902 30.0499 18.0892 29.5387 18.0892 28.9328C18.0892 28.3522 18.2028 27.8599 18.43 27.456C18.6699 27.0521 18.9854 26.7302 19.3767 26.4904C19.768 26.2506 20.2161 26.0802 20.721 25.9792C21.2259 25.8656 21.7497 25.8088 22.2924 25.8088C22.6585 25.8088 22.9803 25.8277 23.258 25.8656C23.5483 25.8909 23.7819 25.9287 23.9586 25.9792V25.7141C23.9586 25.2345 23.8134 24.8495 23.5231 24.5592C23.2328 24.2689 22.7279 24.1237 22.0084 24.1237C21.5288 24.1237 21.0555 24.1616 20.5884 24.2373C20.1214 24.3005 19.7175 24.3951 19.3767 24.5213L19.017 22.2493C19.181 22.1989 19.383 22.1484 19.6228 22.0979C19.8753 22.0348 20.1467 21.9843 20.437 21.9464C20.7273 21.8959 21.0302 21.8581 21.3458 21.8328C21.6739 21.7949 22.0021 21.776 22.3303 21.776Z" fill="white"></path>
    <path d="M28.7437 27.0205C28.7437 26.3011 28.8573 25.6258 29.0845 24.9947C29.3243 24.3509 29.6651 23.7956 30.1069 23.3285C30.5486 22.8489 31.0851 22.4702 31.7162 22.1925C32.3473 21.9149 33.0668 21.776 33.8746 21.776C34.4047 21.776 34.8907 21.8265 35.3325 21.9275C35.7742 22.0158 36.2034 22.1484 36.6199 22.3251L36.033 24.5781C35.7679 24.4772 35.4776 24.3888 35.1621 24.3131C34.8465 24.2373 34.4931 24.1995 34.1018 24.1995C33.2687 24.1995 32.6439 24.4582 32.2274 24.9757C31.8235 25.4932 31.6215 26.1749 31.6215 27.0205C31.6215 27.9167 31.8109 28.6109 32.1895 29.1032C32.5808 29.5955 33.2561 29.8416 34.2154 29.8416C34.5562 29.8416 34.9222 29.81 35.3135 29.7469C35.7048 29.6838 36.0646 29.5829 36.3927 29.444L36.7903 31.7539C36.4622 31.8927 36.0519 32.0126 35.5597 32.1136C35.0674 32.2146 34.5246 32.2651 33.9314 32.2651C33.0226 32.2651 32.24 32.1325 31.5837 31.8675C30.9273 31.5898 30.3846 31.2174 29.9554 30.7504C29.5389 30.2834 29.2296 29.7343 29.0277 29.1032C28.8383 28.4595 28.7437 27.7653 28.7437 27.0205Z" fill="white"></path>
    <path d="M38.6837 22.3819C39.1633 22.243 39.7818 22.1168 40.5391 22.0032C41.2965 21.877 42.0917 21.8139 42.9247 21.8139C43.7704 21.8139 44.471 21.9275 45.0263 22.1547C45.5943 22.3692 46.0424 22.6785 46.3706 23.0824C46.6988 23.4863 46.9323 23.966 47.0711 24.5213C47.21 25.0767 47.2794 25.6952 47.2794 26.3768V32H44.4583V26.7176C44.4583 25.8088 44.3384 25.1651 44.0986 24.7864C43.8588 24.4077 43.4107 24.2184 42.7543 24.2184C42.5524 24.2184 42.3378 24.231 42.1106 24.2563C41.8834 24.2689 41.6814 24.2878 41.5047 24.3131V32H38.6837V22.3819Z" fill="white"></path>
    <path d="M49.3596 27.0963C49.3596 26.2127 49.4921 25.4428 49.7572 24.7864C50.0348 24.1174 50.3946 23.5621 50.8364 23.1203C51.2781 22.6785 51.783 22.344 52.351 22.1168C52.9316 21.8896 53.5249 21.776 54.1308 21.776C55.5444 21.776 56.6615 22.2115 57.482 23.0824C58.3024 23.9407 58.7126 25.2093 58.7126 26.888C58.7126 27.0521 58.7063 27.2351 58.6937 27.4371C58.6811 27.6264 58.6684 27.7968 58.6558 27.9483H52.2564C52.3195 28.5289 52.5908 28.9896 53.0705 29.3304C53.5501 29.6712 54.1939 29.8416 55.0017 29.8416C55.5192 29.8416 56.0241 29.7974 56.5164 29.7091C57.0212 29.6081 57.4315 29.4882 57.747 29.3493L58.1257 31.6403C57.9742 31.716 57.7723 31.7917 57.5198 31.8675C57.2674 31.9432 56.9834 32.0063 56.6678 32.0568C56.3649 32.1199 56.0367 32.1704 55.6833 32.2083C55.3299 32.2461 54.9764 32.2651 54.623 32.2651C53.7268 32.2651 52.9443 32.1325 52.2753 31.8675C51.6189 31.6024 51.0699 31.2427 50.6281 30.7883C50.1989 30.3213 49.8771 29.7722 49.6625 29.1411C49.4605 28.51 49.3596 27.8284 49.3596 27.0963ZM55.9862 26.0171C55.9736 25.7773 55.9294 25.5437 55.8537 25.3165C55.7906 25.0893 55.6833 24.8874 55.5318 24.7107C55.393 24.534 55.21 24.3888 54.9828 24.2752C54.7682 24.1616 54.4968 24.1048 54.1686 24.1048C53.8531 24.1048 53.5817 24.1616 53.3545 24.2752C53.1273 24.3762 52.938 24.515 52.7865 24.6917C52.635 24.8685 52.5151 25.0767 52.4268 25.3165C52.351 25.5437 52.2942 25.7773 52.2564 26.0171H55.9862Z" fill="white"></path>
    <path d="M60.795 19.5608L63.6161 19.1064V22.0411H67.0051V24.3888H63.6161V27.8915C63.6161 28.4847 63.717 28.9581 63.919 29.3115C64.1336 29.6649 64.5564 29.8416 65.1875 29.8416C65.4905 29.8416 65.7997 29.8164 66.1153 29.7659C66.4434 29.7028 66.7401 29.6207 67.0051 29.5197L67.4027 31.716C67.0619 31.8548 66.6833 31.9748 66.2667 32.0757C65.8502 32.1767 65.339 32.2272 64.7331 32.2272C63.9632 32.2272 63.3257 32.1262 62.8209 31.9243C62.316 31.7097 61.9121 31.4194 61.6091 31.0533C61.3062 30.6747 61.0916 30.2203 60.9654 29.6901C60.8518 29.16 60.795 28.5731 60.795 27.9293V19.5608Z" fill="white"></path>
    <defs>
        <linearGradient id="paint0_linear_3_2" x1="35.9118" y1="0" x2="35.9118" y2="49.8349" gradientUnits="userSpaceOnUse">
            <stop stop-color="#A3E635"></stop>
        </linearGradient>
        <linearGradient id="paint1_linear_3_2" x1="35.9115" y1="0" x2="35.9115" y2="49.8349" gradientUnits="userSpaceOnUse">
            <stop stop-color="#A3E635"></stop>
        </linearGradient>
    </defs>
</svg>